<svg id="bc67f35c-f4f2-437f-aded-4082cf23d770" data-name="Capa 1" xmlns="http://www.w3.org/2000/svg" xmlns:xlink="http://www.w3.org/1999/xlink" viewBox="0 0 60.15 19.26"><defs><style>.ab051a93-3418-4118-a362-9ffc20877448,.ad78686f-f2ff-4b2c-97d9-e517e5ab5c3a,.b56fe5bb-2c4b-401b-bbd2-ca3a20d940a6{stroke:#693;stroke-miterlimit:10;}.ab051a93-3418-4118-a362-9ffc20877448,.b56fe5bb-2c4b-401b-bbd2-ca3a20d940a6{stroke-width:0.15px;}.b56fe5bb-2c4b-401b-bbd2-ca3a20d940a6{fill:url(#abf0bdaa-99db-4a44-bb72-4abeebdf1ec1);}.ad78686f-f2ff-4b2c-97d9-e517e5ab5c3a{font-size:8.71px;stroke-width:0.15px;font-family:Arial-BoldMT, Arial;font-weight:700;}.ab051a93-3418-4118-a362-9ffc20877448,.ad78686f-f2ff-4b2c-97d9-e517e5ab5c3a{fill:#fff;}</style><linearGradient id="abf0bdaa-99db-4a44-bb72-4abeebdf1ec1" x1="30.07" y1="0.07" x2="30.07" y2="19.19" gradientUnits="userSpaceOnUse"><stop offset="0" stop-color="#be9"/><stop offset="0.01" stop-color="#b8eb96"/><stop offset="0.11" stop-color="#9fd277"/><stop offset="0.22" stop-color="#8abd5f"/><stop offset="0.35" stop-color="#7aad4b"/><stop offset="0.49" stop-color="#6fa23d"/><stop offset="0.67" stop-color="#689b35"/><stop offset="1" stop-color="#693"/></linearGradient></defs><title>bug</title><rect class="b56fe5bb-2c4b-401b-bbd2-ca3a20d940a6" x="0.07" y="0.07" width="60" height="19.11" rx="6.36"/><text class="ad78686f-f2ff-4b2c-97d9-e517e5ab5c3a" transform="translate(13.99 12.48)">BUG</text><path class="ab051a93-3418-4118-a362-9ffc20877448" d="M49.23,8.18a2.56,2.56,0,0,0,1.94,1.21A4.21,4.21,0,0,1,50.44,14S46.33,12.29,49.23,8.18Z" transform="translate(0.07 -0.96)"/><path class="ab051a93-3418-4118-a362-9ffc20877448" d="M54.28,8.24a2.56,2.56,0,0,1-1.94,1.21A4.21,4.21,0,0,0,53.07,14S57.18,12.35,54.28,8.24Z" transform="translate(0.07 -0.96)"/><path class="ab051a93-3418-4118-a362-9ffc20877448" d="M50,7.69a3.61,3.61,0,0,1,1-.48l-.73-1V6l1,1.21a1.91,1.91,0,0,1,1.21,0l1-1.21v.24l-.73,1a3.44,3.44,0,0,1,1,.48A2.38,2.38,0,0,1,50,7.69Z" transform="translate(0.07 -0.96)"/></svg>