<svg id="fffc5609-1026-4522-a296-02314b0b3ec5" data-name="Capa 1" xmlns="http://www.w3.org/2000/svg" xmlns:xlink="http://www.w3.org/1999/xlink" viewBox="0 0 59.8 19.15"><defs><style>.b1b77cc6-72fc-433b-987b-684b0c6d5765,.ed9b88af-a956-482d-bc15-90d2c48f1f62,.f98bf51d-d433-44b6-ac96-6946b7069afa{stroke:#333;stroke-miterlimit:10;}.b1b77cc6-72fc-433b-987b-684b0c6d5765,.f98bf51d-d433-44b6-ac96-6946b7069afa{stroke-width:0.15px;}.f98bf51d-d433-44b6-ac96-6946b7069afa{fill:url(#bb508ec7-8da7-40d6-a4fa-d0643cd68fff);}.ed9b88af-a956-482d-bc15-90d2c48f1f62{font-size:8.66px;stroke-width:0.15px;font-family:Arial-BoldMT, Arial;font-weight:700;}.b1b77cc6-72fc-433b-987b-684b0c6d5765,.ed9b88af-a956-482d-bc15-90d2c48f1f62{fill:#fff;}.a6416224-3097-4dbb-a63c-030114cfa0a8{fill:#333;}</style><linearGradient id="bb508ec7-8da7-40d6-a4fa-d0643cd68fff" x1="29.9" y1="0.07" x2="29.9" y2="19.07" gradientUnits="userSpaceOnUse"><stop offset="0" stop-color="#666"/><stop offset="0.05" stop-color="#5e5e5e"/><stop offset="0.2" stop-color="#4b4b4b"/><stop offset="0.38" stop-color="#3d3d3d"/><stop offset="0.6" stop-color="#353535"/><stop offset="1" stop-color="#333"/></linearGradient></defs><title>dark</title><rect class="f98bf51d-d433-44b6-ac96-6946b7069afa" x="0.07" y="0.07" width="59.65" height="19" rx="6.36"/><text class="ed9b88af-a956-482d-bc15-90d2c48f1f62" transform="translate(11.02 12.41)">DARK</text><path class="b1b77cc6-72fc-433b-987b-684b0c6d5765" d="M50.58,6.65a1.56,1.56,0,0,0,1,2.4H52s2.06-.34,1-2.4c0,0,3.43,4.46.34,6.52a2.82,2.82,0,0,1-3.09,0S47.15,11.8,50.58,6.65Z" transform="translate(-0.23 -0.93)"/><path class="a6416224-3097-4dbb-a63c-030114cfa0a8" d="M49.72,10.6l1.71,1.71a1.66,1.66,0,0,1-1.37,0S49,12,49.72,10.6Z" transform="translate(-0.23 -0.93)"/><path class="a6416224-3097-4dbb-a63c-030114cfa0a8" d="M53.66,10.56,52,12.28a1.66,1.66,0,0,0,1.37,0S54.35,11.93,53.66,10.56Z" transform="translate(-0.23 -0.93)"/></svg>