<svg id="a22ab4fb-a386-4e95-b822-b75417a9ee93" data-name="Capa 1" xmlns="http://www.w3.org/2000/svg" xmlns:xlink="http://www.w3.org/1999/xlink" viewBox="0 0 60.15 18.06"><defs><style>.a7245408-dbd3-405d-860f-17ee28e10e09,.bb302754-aa20-4f90-890e-1d91e76e4afd,.beb12037-49ad-4d8f-85f2-837b9dd69a87{stroke:#7f47dd;stroke-miterlimit:10;}.bb302754-aa20-4f90-890e-1d91e76e4afd,.beb12037-49ad-4d8f-85f2-837b9dd69a87{stroke-width:0.15px;}.beb12037-49ad-4d8f-85f2-837b9dd69a87{fill:url(#bd156736-10c0-42a7-98fd-aef781db5393);}.a7245408-dbd3-405d-860f-17ee28e10e09{font-size:8.16px;stroke-width:0.15px;font-family:Arial-BoldMT, Arial;font-weight:700;}.a7245408-dbd3-405d-860f-17ee28e10e09,.bb302754-aa20-4f90-890e-1d91e76e4afd{fill:#fff;}.b4ee4653-65e4-4a75-aada-382a10d4ce19{fill:#7f47dd;}</style><linearGradient id="bd156736-10c0-42a7-98fd-aef781db5393" x1="30.08" y1="0.07" x2="30.08" y2="17.99" gradientUnits="userSpaceOnUse"><stop offset="0" stop-color="#daf"/><stop offset="0.1" stop-color="#c08bf4"/><stop offset="0.22" stop-color="#a873ec"/><stop offset="0.34" stop-color="#965fe5"/><stop offset="0.49" stop-color="#8951e1"/><stop offset="0.67" stop-color="#8149de"/><stop offset="1" stop-color="#7f47dd"/></linearGradient></defs><title>Dragon</title><rect class="beb12037-49ad-4d8f-85f2-837b9dd69a87" x="0.07" y="0.07" width="60" height="17.91" rx="6.36"/><text class="a7245408-dbd3-405d-860f-17ee28e10e09" transform="translate(5.52 11.7) scale(1.07 1)">DRAGON</text><path class="bb302754-aa20-4f90-890e-1d91e76e4afd" d="M48,10.08a7.59,7.59,0,0,0,1.39-2.17,14.3,14.3,0,0,0,3-2.38,5.59,5.59,0,0,1-.69,1.52s3.47-.22,3.71,2.82A3.17,3.17,0,0,1,53,13.23a3,3,0,0,1-1.62-1.3,1.66,1.66,0,0,0,2.09-1.74,1.35,1.35,0,0,0-.93-1.3s0-.87-.46-.87a1.62,1.62,0,0,1,0,1.09Z" transform="translate(0.07 -0.8)"/><path class="bb302754-aa20-4f90-890e-1d91e76e4afd" d="M48.14,10.63s2.08,0,2.78-.66a2.05,2.05,0,0,0,.69,3.26S49.3,13.45,48.14,10.63Z" transform="translate(0.07 -0.8)"/><path class="b4ee4653-65e4-4a75-aada-382a10d4ce19" d="M49.6,8.81a3.2,3.2,0,0,1,1-.9s.25.22-.24.68A1.11,1.11,0,0,1,49.6,8.81Z" transform="translate(0.07 -0.8)"/></svg>