<svg id="a5120786-34fe-4621-a203-da0d87687a08" data-name="Capa 1" xmlns="http://www.w3.org/2000/svg" xmlns:xlink="http://www.w3.org/1999/xlink" viewBox="0 0 60.15 19.26"><defs><style>.a2d687eb-62d5-40fb-a093-9634cd781b57,.ac8a1511-d30b-45c6-8abe-727913bc0a82,.fb87d54b-49d0-433b-bc14-46bf1b2a3733{stroke:#d6d;stroke-miterlimit:10;}.ac8a1511-d30b-45c6-8abe-727913bc0a82,.fb87d54b-49d0-433b-bc14-46bf1b2a3733{stroke-width:0.15px;}.fb87d54b-49d0-433b-bc14-46bf1b2a3733{fill:url(#b2f8e505-1a92-4823-97b1-27a68e3b45a3);}.a2d687eb-62d5-40fb-a093-9634cd781b57{font-size:8.71px;stroke-width:0.15px;font-family:Arial-BoldMT, Arial;font-weight:700;}.a2d687eb-62d5-40fb-a093-9634cd781b57,.ac8a1511-d30b-45c6-8abe-727913bc0a82{fill:#fff;}.ea0e0ea8-2546-416d-b166-2403b57e968d{letter-spacing:-0.06em;}.ad2e65af-ec4d-4ad7-ab72-68a0eaaecac5{letter-spacing:-0.04em;}.a25ef82e-a9ad-4742-92e8-65379941d77c{letter-spacing:-0.02em;}</style><linearGradient id="b2f8e505-1a92-4823-97b1-27a68e3b45a3" x1="30.08" y1="0.07" x2="30.08" y2="19.19" gradientUnits="userSpaceOnUse"><stop offset="0" stop-color="#fcf"/><stop offset="0" stop-color="#ffcbff"/><stop offset="0.11" stop-color="#f4acf4"/><stop offset="0.23" stop-color="#ec92ec"/><stop offset="0.35" stop-color="#e57fe5"/><stop offset="0.5" stop-color="#e171e1"/><stop offset="0.68" stop-color="#de68de"/><stop offset="1" stop-color="#d6d"/></linearGradient></defs><title>fairy</title><rect class="fb87d54b-49d0-433b-bc14-46bf1b2a3733" x="0.07" y="0.07" width="60" height="19.11" rx="6.36"/><text class="a2d687eb-62d5-40fb-a093-9634cd781b57" transform="translate(11.08 12.48)"><tspan class="ea0e0ea8-2546-416d-b166-2403b57e968d">F</tspan><tspan x="4.84" y="0">AI</tspan><tspan class="ad2e65af-ec4d-4ad7-ab72-68a0eaaecac5" x="13.55" y="0">R</tspan><tspan class="a25ef82e-a9ad-4742-92e8-65379941d77c" x="19.52" y="0">Y</tspan></text><path class="ac8a1511-d30b-45c6-8abe-727913bc0a82" d="M50,6.65A1.67,1.67,0,0,0,51.9,5.2s.24,1.94,1.93,1.45c0,0-1.69.49-1.93,3.15C51.9,9.8,51.65,6.9,50,6.65Z" transform="translate(0.07 0.07)"/><path class="ac8a1511-d30b-45c6-8abe-727913bc0a82" d="M51.9,12.46A2.92,2.92,0,0,0,50,9.56s-1.69-.49-.73-3.15c0,0-2.17,1.69,0,4.6A4.47,4.47,0,0,0,51.9,12.46Z" transform="translate(0.07 0.07)"/><path class="ac8a1511-d30b-45c6-8abe-727913bc0a82" d="M52.08,12.46A3,3,0,0,1,54,9.52s1.69-.49.72-3.18c0,0,2.18,1.71,0,4.65A4.49,4.49,0,0,1,52.08,12.46Z" transform="translate(0.07 0.07)"/></svg>