<svg id="ba9908bf-217d-45b1-bc83-9542eae1aaa8" data-name="Capa 1" xmlns="http://www.w3.org/2000/svg" xmlns:xlink="http://www.w3.org/1999/xlink" viewBox="0 0 60.07 19.24"><defs><style>.a03eab94-df58-4ad3-9237-fe793debe00c,.a052ddd2-8b2d-4e03-a096-7d730f8f76b2,.b4347637-2bba-4218-9a87-038d070c792d{stroke:#700;stroke-miterlimit:10;}.a03eab94-df58-4ad3-9237-fe793debe00c,.b4347637-2bba-4218-9a87-038d070c792d{stroke-width:0.15px;}.a03eab94-df58-4ad3-9237-fe793debe00c{fill:url(#b07298f1-bc6e-4cc5-9c64-cb5530089ad2);}.a052ddd2-8b2d-4e03-a096-7d730f8f76b2{font-size:8.7px;stroke-width:0.15px;font-family:Arial-BoldMT, Arial;font-weight:700;}.a052ddd2-8b2d-4e03-a096-7d730f8f76b2,.b4347637-2bba-4218-9a87-038d070c792d{fill:#fff;}</style><linearGradient id="b07298f1-bc6e-4cc5-9c64-cb5530089ad2" x1="30.03" y1="0.07" x2="30.03" y2="19.16" gradientUnits="userSpaceOnUse"><stop offset="0" stop-color="#a33"/><stop offset="0.05" stop-color="#a22b2b"/><stop offset="0.2" stop-color="#8f1818"/><stop offset="0.38" stop-color="#810a0a"/><stop offset="0.6" stop-color="#790202"/><stop offset="1" stop-color="#700"/></linearGradient></defs><title>fighting</title><rect class="a03eab94-df58-4ad3-9237-fe793debe00c" x="0.07" y="0.07" width="59.92" height="19.09" rx="6.36"/><text class="a052ddd2-8b2d-4e03-a096-7d730f8f76b2" transform="translate(2.86 12.46)">FIGHTING</text><path class="b4347637-2bba-4218-9a87-038d070c792d" d="M49.65,6.4h.72a.25.25,0,0,1,.25.24v1.7a.24.24,0,0,0,.24.24h0a.24.24,0,0,0,.24-.24V6.64a.24.24,0,0,1,.24-.24h.73a.24.24,0,0,1,.24.24v1.7a.24.24,0,0,0,.24.24h0a.24.24,0,0,0,.24-.24V6.64A.24.24,0,0,1,53,6.4h.73a.24.24,0,0,1,.24.24v1.7a.24.24,0,0,0,.24.24h0a.24.24,0,0,0,.24-.24V6.64a.24.24,0,0,1,.24-.24h.73a.24.24,0,0,1,.24.24V12a.24.24,0,0,1-.24.24h-5.8a.24.24,0,0,1-.24-.24V6.64A.24.24,0,0,1,49.65,6.4Z" transform="translate(0.07 0.07)"/><path class="b4347637-2bba-4218-9a87-038d070c792d" d="M47.75,9.72l.61-1.22a.29.29,0,0,1,.27-.16h0a.29.29,0,0,1,.29.29V11.9a.29.29,0,0,1-.29.3h0a.29.29,0,0,1-.27-.16l-.61-1.23a.28.28,0,0,1,0-.13V9.86A.32.32,0,0,1,47.75,9.72Z" transform="translate(0.07 0.07)"/></svg>