<svg id="eb812800-35de-41c8-bf66-86073c8aa107" data-name="Capa 1" xmlns="http://www.w3.org/2000/svg" xmlns:xlink="http://www.w3.org/1999/xlink" viewBox="0 0 60.15 19.26"><defs><style>.ad0ce4cf-b8b7-455c-a104-0911c25dd094,.e48155f3-ea98-4292-945f-fe1425ddad43,.ed579e28-e137-43ad-b170-2888a781f8dc{stroke:#c60;stroke-miterlimit:10;}.ad0ce4cf-b8b7-455c-a104-0911c25dd094,.ed579e28-e137-43ad-b170-2888a781f8dc{stroke-width:0.15px;}.ad0ce4cf-b8b7-455c-a104-0911c25dd094{fill:url(#b8e922a3-a672-4bbe-8085-f41b7f9c53b4);}.e48155f3-ea98-4292-945f-fe1425ddad43{font-size:8.71px;stroke-width:0.15px;font-family:Arial-BoldMT, Arial;font-weight:700;}.e48155f3-ea98-4292-945f-fe1425ddad43,.ed579e28-e137-43ad-b170-2888a781f8dc{fill:#fff;}</style><linearGradient id="b8e922a3-a672-4bbe-8085-f41b7f9c53b4" x1="30.08" y1="0.07" x2="30.08" y2="19.19" gradientUnits="userSpaceOnUse"><stop offset="0" stop-color="#fb6"/><stop offset="0.01" stop-color="#fdb863"/><stop offset="0.11" stop-color="#ee9f44"/><stop offset="0.22" stop-color="#e28a2c"/><stop offset="0.35" stop-color="#d87a18"/><stop offset="0.49" stop-color="#d16f0a"/><stop offset="0.67" stop-color="#cd6802"/><stop offset="1" stop-color="#c60"/></linearGradient></defs><title>fire</title><rect class="ad0ce4cf-b8b7-455c-a104-0911c25dd094" x="0.07" y="0.07" width="60" height="19.11" rx="6.36"/><text class="e48155f3-ea98-4292-945f-fe1425ddad43" transform="translate(13.74 12.48)">FIRE</text><path class="ed579e28-e137-43ad-b170-2888a781f8dc" d="M47.78,10.57a2,2,0,0,0,1.27.54s-1.81-1.81,0-3.44c0,0-.54,1.45.73,2,0,0-.73-1.27.18-2,0,0,1.81-1.46,1.27-2.18,0,0,1.81.91,1.27,3.63,0,0,1.09.54,2-1.09a2.13,2.13,0,0,1-1.27,2.54A1.65,1.65,0,0,0,55,9.84a4.53,4.53,0,0,1-1.48,2.52,4.45,4.45,0,0,1-2,1l.06-.47s1.91,0,.82-1.09c0,0-.36-.55.36-.91,0,0-.18-.18-.91.18a.64.64,0,0,0-.36-.54s-.54-.18.18-.91c0,0-1.63.36-1.09,1.09,0,0,.55.54,0,.91,0,0-.18-.73-.72-.55a.65.65,0,0,1,.18.91s-.54.73,1.09.91v.36A4.43,4.43,0,0,1,47.78,10.57Z" transform="translate(0.07 0.07)"/></svg>