<svg id="e2b2a11a-cbea-4b95-8ed8-b810a9cd2c68" data-name="Capa 1" xmlns="http://www.w3.org/2000/svg" xmlns:xlink="http://www.w3.org/1999/xlink" viewBox="0 0 60.15 19.26"><defs><style>.a37debf7-3b8e-4ac3-986c-ea874300fc7f,.abcb6bf6-2cef-420d-90b8-7cae0245dd54,.ae43b977-30af-41c9-a832-4d4b857965cd{stroke:#a8f;stroke-miterlimit:10;}.abcb6bf6-2cef-420d-90b8-7cae0245dd54,.ae43b977-30af-41c9-a832-4d4b857965cd{stroke-width:0.15px;}.abcb6bf6-2cef-420d-90b8-7cae0245dd54{fill:url(#f3b257cf-afa2-4e59-9890-abb10d5437d0);}.a37debf7-3b8e-4ac3-986c-ea874300fc7f{font-size:8.71px;stroke-width:0.15px;font-family:Arial-BoldMT, Arial;font-weight:700;}.a37debf7-3b8e-4ac3-986c-ea874300fc7f,.ae43b977-30af-41c9-a832-4d4b857965cd{fill:#fff;}.ba08c807-afef-4df4-844e-501fd774eb26{letter-spacing:-0.09em;}</style><linearGradient id="f3b257cf-afa2-4e59-9890-abb10d5437d0" x1="30.08" y1="0.07" x2="30.08" y2="19.19" gradientUnits="userSpaceOnUse"><stop offset="0" stop-color="#edf"/><stop offset="0.06" stop-color="#e1ccff"/><stop offset="0.18" stop-color="#cdb4ff"/><stop offset="0.31" stop-color="#bda0ff"/><stop offset="0.46" stop-color="#b292ff"/><stop offset="0.65" stop-color="#ac8aff"/><stop offset="1" stop-color="#a8f"/></linearGradient></defs><title>flying</title><rect class="abcb6bf6-2cef-420d-90b8-7cae0245dd54" x="0.07" y="0.07" width="60" height="19.11" rx="6.36"/><text class="a37debf7-3b8e-4ac3-986c-ea874300fc7f" transform="translate(8.1 12.48)">F<tspan class="ba08c807-afef-4df4-844e-501fd774eb26" x="5.32" y="0">L</tspan><tspan x="9.84" y="0">YING</tspan></text><path class="ae43b977-30af-41c9-a832-4d4b857965cd" d="M50.43,7.11s4.32.76,5.67-1.67c0,0,.13,4.18-3.91,3.64,0,0,.81.81,3,0a2.57,2.57,0,0,1-2.43,1.08,2.14,2.14,0,0,0,2.16-.27s-.27.81-1.89.81c0,0,0,.27.54.27,0,0-2.16,3.5-5.12,0a2.43,2.43,0,0,1,.27-2.7A2.49,2.49,0,0,1,50.43,7.11Z" transform="translate(0.08 0.07)"/></svg>