<svg id="fe00568b-d980-4fb0-ba0c-5ecc8999f42c" data-name="Capa 1" xmlns="http://www.w3.org/2000/svg" xmlns:xlink="http://www.w3.org/1999/xlink" viewBox="0 0 60.15 19.26"><defs><style>.a8eb6778-1145-40e5-85e7-ed052808c649,.a9f182c7-b845-4631-b720-3a0c0c8a631f,.b83b7d60-c94c-4601-9beb-e7921ffe19b9{stroke:#639;stroke-miterlimit:10;}.a8eb6778-1145-40e5-85e7-ed052808c649,.a9f182c7-b845-4631-b720-3a0c0c8a631f{stroke-width:0.15px;}.a8eb6778-1145-40e5-85e7-ed052808c649{fill:url(#b996e58e-b393-4206-babe-07d8db573ec0);}.b83b7d60-c94c-4601-9beb-e7921ffe19b9{font-size:8.71px;stroke-width:0.15px;font-family:Arial-BoldMT, Arial;font-weight:700;}.a9f182c7-b845-4631-b720-3a0c0c8a631f,.b83b7d60-c94c-4601-9beb-e7921ffe19b9{fill:#fff;}.a7079ad6-2c37-4b7f-8101-178160bd5ef7{fill:#639;}</style><linearGradient id="b996e58e-b393-4206-babe-07d8db573ec0" x1="30.08" y1="0.07" x2="30.08" y2="19.19" gradientUnits="userSpaceOnUse"><stop offset="0" stop-color="#a7d"/><stop offset="0.12" stop-color="#915ec4"/><stop offset="0.26" stop-color="#7e4bb1"/><stop offset="0.43" stop-color="#703da3"/><stop offset="0.63" stop-color="#68359b"/><stop offset="1" stop-color="#639"/></linearGradient></defs><title>ghost</title><rect class="a8eb6778-1145-40e5-85e7-ed052808c649" x="0.07" y="0.07" width="60" height="19.11" rx="6.36"/><text class="b83b7d60-c94c-4601-9beb-e7921ffe19b9" transform="translate(8.18 12.48)">GHOST</text><path class="a9f182c7-b845-4631-b720-3a0c0c8a631f" d="M54.43,12.56S49,14.57,48,9.76A3.2,3.2,0,0,1,50.62,6a3.53,3.53,0,0,1,4.31,2.5,3.16,3.16,0,0,1-1,3.21A.73.73,0,0,0,54.43,12.56Z" transform="translate(0.07 0.03)"/><path class="a7079ad6-2c37-4b7f-8101-178160bd5ef7" d="M49.6,8s0,1,1.21.72c0,0,0,1.46-1.46.73C49.35,9.48,48.39,8.75,49.6,8Z" transform="translate(0.07 0.03)"/><path class="a7079ad6-2c37-4b7f-8101-178160bd5ef7" d="M53.1,8s0,1-1.21.72c0,0,0,1.46,1.45.73C53.34,9.48,54.31,8.75,53.1,8Z" transform="translate(0.07 0.03)"/></svg>