<svg id="e8fd3856-1fa6-403d-a73c-339886f0050f" data-name="Capa 1" xmlns="http://www.w3.org/2000/svg" xmlns:xlink="http://www.w3.org/1999/xlink" viewBox="0 0 60.15 19.26"><defs><style>.b2244543-c9dd-4a0e-a348-68ad4e13a617,.b48eddcd-e583-40b4-b34e-1b1a3e55e533,.f8f1628b-1b77-40b2-9f23-a7e7be0f9d37{stroke:#090;stroke-miterlimit:10;}.b2244543-c9dd-4a0e-a348-68ad4e13a617,.b48eddcd-e583-40b4-b34e-1b1a3e55e533{stroke-width:0.15px;}.b2244543-c9dd-4a0e-a348-68ad4e13a617{fill:url(#e30c1d5f-73c7-405e-8c1c-b60adfa33f82);}.f8f1628b-1b77-40b2-9f23-a7e7be0f9d37{font-size:8.71px;stroke-width:0.15px;font-family:Arial-BoldMT, Arial;font-weight:700;}.b48eddcd-e583-40b4-b34e-1b1a3e55e533,.f8f1628b-1b77-40b2-9f23-a7e7be0f9d37{fill:#fff;}</style><linearGradient id="e30c1d5f-73c7-405e-8c1c-b60adfa33f82" x1="30.08" y1="0.07" x2="30.08" y2="19.19" gradientUnits="userSpaceOnUse"><stop offset="0" stop-color="#0e0"/><stop offset="0.06" stop-color="#0d0"/><stop offset="0.18" stop-color="#00c500"/><stop offset="0.31" stop-color="#00b100"/><stop offset="0.46" stop-color="#00a300"/><stop offset="0.65" stop-color="#009b00"/><stop offset="1" stop-color="#090"/></linearGradient></defs><title>grass</title><rect class="b2244543-c9dd-4a0e-a348-68ad4e13a617" x="0.07" y="0.07" width="60" height="19.11" rx="6.36"/><text class="f8f1628b-1b77-40b2-9f23-a7e7be0f9d37" transform="translate(8.18 12.48)">GRASS</text><path class="b48eddcd-e583-40b4-b34e-1b1a3e55e533" d="M50.41,12.41c6.47,2,4.45-7.08,4.45-7.08C44.75,6.14,49,11.4,49,11.4l.91-.91a12,12,0,0,1-.4-2.63s.2-.61.81,2.22l1.21-1.21s-.4-1.82-.2-1.82c0,0,.2-.41.6,1.21h0v.2s1.82-2.22,1.82-1.82c0,0,.21,0-1.21,2v.2s1.42,0,1.42.2c0,0,.2.2-1.82.2l-.81,1.42h2s1,.2-2.43.4l-.81,1.22Z" transform="translate(0.07 0.07)"/></svg>