<svg id="e5dafb1e-5023-490a-a4ce-1d9cbb3e0d05" data-name="Capa 1" xmlns="http://www.w3.org/2000/svg" xmlns:xlink="http://www.w3.org/1999/xlink" viewBox="0 0 60.15 19.26"><defs><style>.a8561ca1-833d-4de3-9129-2d9204612a57,.ecf17959-9744-43e2-8cfe-09e644507a93,.f86e78f9-1551-44ae-96b8-3de67bc979fc{stroke:#5bf;stroke-miterlimit:10;}.ecf17959-9744-43e2-8cfe-09e644507a93,.f86e78f9-1551-44ae-96b8-3de67bc979fc{stroke-width:0.15px;}.ecf17959-9744-43e2-8cfe-09e644507a93{fill:url(#badc468d-95fa-45f0-b611-bad864ccb787);}.a8561ca1-833d-4de3-9129-2d9204612a57{font-size:8.71px;stroke-width:0.15px;font-family:Arial-BoldMT, Arial;font-weight:700;}.a8561ca1-833d-4de3-9129-2d9204612a57,.f86e78f9-1551-44ae-96b8-3de67bc979fc{fill:#fff;}</style><linearGradient id="badc468d-95fa-45f0-b611-bad864ccb787" x1="30.08" y1="0.07" x2="30.08" y2="19.19" gradientUnits="userSpaceOnUse"><stop offset="0" stop-color="#bff"/><stop offset="0.01" stop-color="#b8fdff"/><stop offset="0.11" stop-color="#99e9ff"/><stop offset="0.22" stop-color="#81d8ff"/><stop offset="0.35" stop-color="#6dcbff"/><stop offset="0.49" stop-color="#5fc2ff"/><stop offset="0.67" stop-color="#57bdff"/><stop offset="1" stop-color="#5bf"/></linearGradient></defs><title>ice</title><rect class="ecf17959-9744-43e2-8cfe-09e644507a93" x="0.07" y="0.07" width="60" height="19.11" rx="6.36"/><text class="a8561ca1-833d-4de3-9129-2d9204612a57" transform="translate(16.4 12.48)">ICE</text><polygon class="f86e78f9-1551-44ae-96b8-3de67bc979fc" points="49.37 5.11 51.8 6.2 51.8 8.9 49.37 7.55 49.37 5.11"/><polygon class="f86e78f9-1551-44ae-96b8-3de67bc979fc" points="54.56 5.09 52.12 6.18 52.12 8.88 54.56 7.53 54.56 5.09"/><polygon class="f86e78f9-1551-44ae-96b8-3de67bc979fc" points="54.57 13 52.14 11.92 52.14 9.21 54.57 10.56 54.57 13"/><polygon class="f86e78f9-1551-44ae-96b8-3de67bc979fc" points="49.38 13.02 51.82 11.94 51.82 9.23 49.38 10.58 49.38 13.02"/><polyline class="f86e78f9-1551-44ae-96b8-3de67bc979fc" points="52.37 9.04 54.69 7.76 57.26 9.15 54.69 10.33"/><polyline class="f86e78f9-1551-44ae-96b8-3de67bc979fc" points="51.53 9.07 49.22 7.76 46.65 9.17 49.22 10.38"/></svg>