<svg id="e5b65e18-ffa7-4e9d-a4cd-88b84b6a20ac" data-name="Capa 1" xmlns="http://www.w3.org/2000/svg" xmlns:xlink="http://www.w3.org/1999/xlink" viewBox="0 0 60.15 19.26"><defs><style>.a9841a39-5c0d-4872-a57b-db92cca7fd6f,.bbad969b-93a7-4d06-9d25-c60bba7747d2,.f47242c0-bbfc-4862-8e99-d75a85fc5e7a{stroke:#888;stroke-miterlimit:10;}.bbad969b-93a7-4d06-9d25-c60bba7747d2,.f47242c0-bbfc-4862-8e99-d75a85fc5e7a{stroke-width:0.15px;}.f47242c0-bbfc-4862-8e99-d75a85fc5e7a{fill:url(#b8405c1e-9e6a-4518-9403-13d7029a893d);}.a9841a39-5c0d-4872-a57b-db92cca7fd6f{font-size:8.71px;stroke-width:0.15px;font-family:Arial-BoldMT, Arial;font-weight:700;}.a9841a39-5c0d-4872-a57b-db92cca7fd6f,.bbad969b-93a7-4d06-9d25-c60bba7747d2{fill:#fff;}.abf893dd-a45d-4c01-9eb7-e07016e3baeb{letter-spacing:-0.02em;}</style><linearGradient id="b8405c1e-9e6a-4518-9403-13d7029a893d" x1="30.07" y1="0.07" x2="30.07" y2="19.19" gradientUnits="userSpaceOnUse"><stop offset="0" stop-color="#ccc"/><stop offset="0.12" stop-color="#b3b3b3"/><stop offset="0.26" stop-color="#a0a0a0"/><stop offset="0.43" stop-color="#929292"/><stop offset="0.63" stop-color="#8a8a8a"/><stop offset="1" stop-color="#888"/></linearGradient></defs><title>steel</title><rect class="f47242c0-bbfc-4862-8e99-d75a85fc5e7a" x="0.07" y="0.07" width="60" height="19.11" rx="6.36"/><text class="a9841a39-5c0d-4872-a57b-db92cca7fd6f" transform="translate(9.71 12.48)">STEE<tspan class="abf893dd-a45d-4c01-9eb7-e07016e3baeb" x="22.75" y="0">L</tspan></text><polygon class="bbad969b-93a7-4d06-9d25-c60bba7747d2" points="48.72 9.01 48.19 7.96 48.98 6.63 50.3 6.63 49.77 5.84 48.45 5.84 47.13 7.96 47.66 9.01 48.72 9.01"/><polygon class="bbad969b-93a7-4d06-9d25-c60bba7747d2" points="54.17 9.01 54.69 7.96 53.9 6.63 52.58 6.63 53.11 5.84 54.43 5.84 55.75 7.96 55.22 9.01 54.17 9.01"/><polygon class="bbad969b-93a7-4d06-9d25-c60bba7747d2" points="49.91 11.09 50.53 12.1 52.07 12.11 52.76 10.98 53.16 11.84 52.48 12.97 49.98 13 49.36 12 49.91 11.09"/><polygon class="bbad969b-93a7-4d06-9d25-c60bba7747d2" points="48.98 7.43 53.74 7.43 51.36 11.65 48.98 7.43"/></svg>