<svg id="b84ed895-2a67-47c0-8aab-dc42544f02af" data-name="Capa 1" xmlns="http://www.w3.org/2000/svg" xmlns:xlink="http://www.w3.org/1999/xlink" viewBox="0 0 60.1 19.25"><defs><style>.bf31ace6-5d2c-4761-a39c-c6a35fa68aeb,.e785b2e1-4bd4-4c21-98ce-45af27c45760,.ec4f219a-e36d-4b9e-b3e6-37acbf922da7{stroke:#04b;stroke-miterlimit:10;}.bf31ace6-5d2c-4761-a39c-c6a35fa68aeb,.e785b2e1-4bd4-4c21-98ce-45af27c45760{stroke-width:0.15px;}.e785b2e1-4bd4-4c21-98ce-45af27c45760{fill:url(#fccd0a24-78ae-43c9-9ba9-121b4176a0b5);}.ec4f219a-e36d-4b9e-b3e6-37acbf922da7{font-size:8.7px;stroke-width:0.15px;font-family:Arial-BoldMT, Arial;font-weight:700;}.bf31ace6-5d2c-4761-a39c-c6a35fa68aeb,.ec4f219a-e36d-4b9e-b3e6-37acbf922da7{fill:#fff;}.ac2ec1dd-998f-4adb-848b-6a74fea7928f{letter-spacing:-0.06em;}.e3733d89-562a-4a58-a67d-773336e34733{letter-spacing:-0.07em;}.a165b502-c25f-4750-85af-2fec2df30477{fill:#04b;}</style><linearGradient id="fccd0a24-78ae-43c9-9ba9-121b4176a0b5" x1="30.05" y1="0.07" x2="30.05" y2="19.17" gradientUnits="userSpaceOnUse"><stop offset="0" stop-color="#08f"/><stop offset="0.12" stop-color="#0070e7"/><stop offset="0.27" stop-color="#005dd4"/><stop offset="0.43" stop-color="#004fc6"/><stop offset="0.64" stop-color="#0046bd"/><stop offset="1" stop-color="#04b"/></linearGradient></defs><title>water</title><rect class="e785b2e1-4bd4-4c21-98ce-45af27c45760" x="0.07" y="0.07" width="59.95" height="19.1" rx="6.36"/><text class="ec4f219a-e36d-4b9e-b3e6-37acbf922da7" transform="translate(8.26 12.47)"><tspan class="ac2ec1dd-998f-4adb-848b-6a74fea7928f">W</tspan><tspan class="e3733d89-562a-4a58-a67d-773336e34733" x="7.73" y="0">A</tspan><tspan x="13.37" y="0">TER</tspan></text><path class="bf31ace6-5d2c-4761-a39c-c6a35fa68aeb" d="M51.18,5.44S55,10,53.84,12.21c0,0-2.18,3.38-5.08.48C48.76,12.69,46.82,10.76,51.18,5.44Z" transform="translate(0.03 0.07)"/><path class="a165b502-c25f-4750-85af-2fec2df30477" d="M49.6,10.64s0,1.45,1.21,1.69c0,0,1.45.24,1.7-1a1.64,1.64,0,0,1-1.94,1.69A1.56,1.56,0,0,1,49.6,10.64Z" transform="translate(0.03 0.07)"/></svg>