<svg xmlns="http://www.w3.org/2000/svg" xmlns:xlink="http://www.w3.org/1999/xlink" viewBox="0 0 60 30.12"><defs><style>.a367861a-5072-4778-bddd-747cf37361c0{fill:#05f;}.ec6ad981-75d9-4dfd-a4de-0d1ebad8f80c{fill:#6af;stroke:#48f;stroke-miterlimit:10;stroke-width:0.25px;}.a89e72f9-179a-4e8a-a506-53e3e21db3d4{fill:url(#b341f0d5-180d-487d-9e99-6f440d3dc077);}</style><linearGradient id="b341f0d5-180d-487d-9e99-6f440d3dc077" x1="30" y1="30" x2="30" gradientUnits="userSpaceOnUse"><stop offset="0.31" stop-opacity="0"/><stop offset="1" stop-color="#fff" stop-opacity="0.5"/></linearGradient></defs><title>special</title><g id="b1c16619-d261-4795-a3a7-7e8908738a25" data-name="Capa 2"><rect class="a367861a-5072-4778-bddd-747cf37361c0" width="60" height="30" rx="2"/></g><g id="bc40902e-2d39-4f01-b4ac-24418b1e64f4" data-name="Capa 1"><path class="ec6ad981-75d9-4dfd-a4de-0d1ebad8f80c" d="M29.3.38S12.6-.93,12.09,15.14c0,0-1.29,15.08,17.21,14.76,0,0,17.72,2.29,17.46-14.76C46.76,15.14,47-.27,29.3.38Z" transform="translate(0 0)"/><path class="a367861a-5072-4778-bddd-747cf37361c0" d="M29.59,2.61S16.27,1.54,15.86,14.55c0,0-1,12.22,13.73,12,0,0,14.14,1.86,13.94-11.95C43.53,14.55,43.73,2.08,29.59,2.61Z" transform="translate(0 0)"/><path class="ec6ad981-75d9-4dfd-a4de-0d1ebad8f80c" d="M29.54,3.52s-12.49-1-12.88,10.73c0,0-1,11,12.88,10.72,0,0,13.26,1.67,13.06-10.72C42.6,14.25,42.8,3.05,29.54,3.52Z" transform="translate(0 0)"/><path class="a367861a-5072-4778-bddd-747cf37361c0" d="M29.55,6s-8.74-.7-9,7.83c0,0-.67,8,9,7.84,0,0,9.27,1.21,9.13-7.84C38.68,13.8,38.82,5.62,29.55,6Z" transform="translate(0 0)"/><path class="ec6ad981-75d9-4dfd-a4de-0d1ebad8f80c" d="M29.63,7S22,6.43,21.78,13.55c0,0-.58,6.68,7.85,6.53,0,0,8.07,1,8-6.53C37.59,13.55,37.7,6.72,29.63,7Z" transform="translate(0 0)"/></g><g id="e4323650-90d4-4658-9659-b1598560be88" data-name="Capa 3"><rect class="a89e72f9-179a-4e8a-a506-53e3e21db3d4" width="60" height="30" rx="2"/></g></svg>